<?xml version="1.0" standalone="no"?>
<!DOCTYPE svg PUBLIC "-//W3C//DTD SVG 20010904//EN"
 "http://www.w3.org/TR/2001/REC-SVG-20010904/DTD/svg10.dtd">
<svg version="1.0" xmlns="http://www.w3.org/2000/svg"
 width="512.000000pt" height="512.000000pt" viewBox="0 0 512.000000 512.000000"
 preserveAspectRatio="xMidYMid meet">
<metadata>
Created by potrace 1.14, written by Peter Selinger 2001-2017
</metadata>
<g transform="translate(0.000000,512.000000) scale(0.100000,-0.100000)"
fill="#000000" stroke="none">
<path d="M2455 5029 c-34 -4 -104 -32 -220 -88 -93 -46 -219 -107 -280 -136
-114 -54 -270 -129 -530 -255 -82 -40 -211 -102 -285 -138 -74 -35 -214 -103
-310 -149 -96 -47 -193 -94 -216 -104 -56 -27 -111 -81 -139 -138 -13 -26 -38
-110 -55 -187 -38 -169 -35 -154 -55 -239 -9 -38 -19 -81 -21 -95 -3 -14 -10
-43 -16 -65 -5 -22 -12 -49 -14 -60 -4 -21 -19 -90 -55 -240 -11 -49 -23 -100
-25 -112 -2 -12 -27 -120 -54 -240 -28 -120 -52 -228 -55 -241 -2 -12 -6 -30
-9 -40 -3 -9 -7 -28 -10 -42 -3 -14 -17 -77 -31 -140 -15 -63 -28 -122 -30
-130 -2 -8 -13 -58 -25 -110 -26 -116 -22 -196 13 -272 23 -51 73 -117 287
-379 30 -37 80 -98 110 -135 214 -265 423 -524 539 -668 123 -153 171 -212
231 -284 11 -13 41 -50 66 -83 68 -86 137 -133 233 -159 33 -9 315 -12 1093
-12 l1048 0 53 26 c57 27 99 68 187 181 30 39 57 72 60 75 3 3 42 50 86 105
44 55 131 163 193 240 63 77 166 205 230 285 64 80 118 147 121 150 3 3 44 52
90 110 46 58 87 107 90 110 3 3 76 93 162 201 228 284 236 313 168 605 -23 98
-59 256 -81 349 -21 94 -57 249 -80 345 -22 96 -42 182 -44 190 -2 8 -12 54
-24 102 -22 94 -26 111 -40 173 -4 22 -27 121 -51 220 -23 99 -53 226 -65 281
-12 56 -33 123 -46 148 -31 63 -104 135 -171 168 -66 33 -369 179 -463 223
-38 18 -146 70 -240 115 -93 45 -210 101 -260 125 -49 24 -153 73 -230 110
-376 181 -583 278 -620 293 -36 14 -140 20 -210 11z"/>
</g>
</svg>
